<svg width="101" height="41" viewBox="0 0 101 41" fill="none" xmlns="http://www.w3.org/2000/svg">
<rect width="101" height="40.6852" rx="13.7037" fill="#0093FF"/>
<path d="M31.9202 22.721C31.9202 22.2589 31.7572 21.9056 31.431 21.6609C31.1048 21.4109 30.5177 21.1499 29.6697 20.8781C28.8216 20.6009 28.1502 20.3291 27.6555 20.0627C26.3074 19.3342 25.6333 18.353 25.6333 17.119C25.6333 16.4775 25.8127 15.9067 26.1715 15.4066C26.5357 14.901 27.0548 14.5069 27.7289 14.2242C28.4085 13.9415 29.1695 13.8002 30.0121 13.8002C30.8602 13.8002 31.6158 13.9551 32.279 14.265C32.9422 14.5694 33.456 15.0016 33.8202 15.5615C34.1899 16.1215 34.3747 16.7575 34.3747 17.4696H31.9284C31.9284 16.926 31.7572 16.5047 31.4147 16.2057C31.0722 15.9013 30.5911 15.7491 29.9714 15.7491C29.3734 15.7491 28.9086 15.8768 28.577 16.1323C28.2454 16.3824 28.0796 16.714 28.0796 17.1271C28.0796 17.5131 28.2726 17.8366 28.6585 18.0975C29.0499 18.3584 29.6234 18.6031 30.3791 18.8314C31.7707 19.25 32.7846 19.7691 33.4206 20.3889C34.0567 21.0086 34.3747 21.7805 34.3747 22.7047C34.3747 23.7321 33.986 24.5394 33.2086 25.1265C32.4312 25.7082 31.3848 25.999 30.0692 25.999C29.1559 25.999 28.3242 25.8332 27.574 25.5016C26.8238 25.1646 26.2503 24.7052 25.8534 24.1235C25.462 23.5419 25.2663 22.8678 25.2663 22.1013H27.7208C27.7208 23.4114 28.5036 24.0665 30.0692 24.0665C30.6509 24.0665 31.1048 23.9496 31.431 23.7158C31.7572 23.4766 31.9202 23.145 31.9202 22.721ZM41.1672 24.939C40.5855 25.6457 39.781 25.999 38.7535 25.999C37.8076 25.999 37.0846 25.7272 36.5845 25.1836C36.0898 24.64 35.837 23.8436 35.8262 22.7944V17.013H38.1827V22.7128C38.1827 23.6316 38.6013 24.0909 39.4385 24.0909C40.2376 24.0909 40.7867 23.8137 41.0857 23.2592V17.013H43.4504V25.8359H41.2324L41.1672 24.939ZM53.1785 21.506C53.1785 22.9194 52.8768 24.023 52.2734 24.8167C51.67 25.6049 50.8273 25.999 49.7455 25.999C48.7888 25.999 48.025 25.6321 47.4542 24.8982L47.3482 25.8359H45.2281V13.3109H47.5846V17.804C48.1283 17.1679 48.8431 16.8499 49.7292 16.8499C50.8056 16.8499 51.6482 17.2467 52.2571 18.0404C52.8714 18.8287 53.1785 19.9404 53.1785 21.3755V21.506ZM50.8219 21.3348C50.8219 20.4432 50.6806 19.7936 50.3979 19.3859C50.1152 18.9727 49.6939 18.7662 49.134 18.7662C48.3838 18.7662 47.8673 19.0733 47.5846 19.6876V23.1695C47.8728 23.7892 48.3946 24.0991 49.1503 24.0991C49.9113 24.0991 50.4115 23.724 50.6507 22.9738C50.7648 22.615 50.8219 22.0687 50.8219 21.3348ZM56.8479 17.013L56.9213 17.9997C57.5465 17.2332 58.3918 16.8499 59.4573 16.8499C60.5935 16.8499 61.3736 17.2984 61.7976 18.1954C62.4173 17.2984 63.3007 16.8499 64.4477 16.8499C65.4045 16.8499 66.1166 17.1299 66.5842 17.6898C67.0517 18.2443 67.2854 19.0815 67.2854 20.2013V25.8359H64.9207V20.2095C64.9207 19.7093 64.8228 19.3451 64.6271 19.1168C64.4314 18.883 64.0862 18.7662 63.5915 18.7662C62.8848 18.7662 62.3956 19.1032 62.1238 19.7773L62.1319 25.8359H59.7753V20.2176C59.7753 19.7066 59.6748 19.337 59.4736 19.1086C59.2725 18.8803 58.93 18.7662 58.4462 18.7662C57.7775 18.7662 57.2937 19.0434 56.9947 19.5979V25.8359H54.6381V17.013H56.8479ZM71.5909 25.8359H69.2262V17.013H71.5909V25.8359ZM69.0875 14.7298C69.0875 14.3764 69.2044 14.0856 69.4382 13.8573C69.6774 13.629 70.0008 13.5148 70.4085 13.5148C70.8108 13.5148 71.1315 13.629 71.3707 13.8573C71.6099 14.0856 71.7295 14.3764 71.7295 14.7298C71.7295 15.0886 71.6072 15.3821 71.3626 15.6104C71.1234 15.8388 70.8054 15.9529 70.4085 15.9529C70.0117 15.9529 69.6909 15.8388 69.4463 15.6104C69.2071 15.3821 69.0875 15.0886 69.0875 14.7298ZM76.3612 14.8439V17.013H77.8697V18.7417H76.3612V23.145C76.3612 23.4712 76.4237 23.7049 76.5487 23.8463C76.6737 23.9876 76.9129 24.0583 77.2663 24.0583C77.5272 24.0583 77.7583 24.0393 77.9594 24.0012V25.787C77.4973 25.9284 77.0217 25.999 76.5324 25.999C74.8798 25.999 74.0372 25.1646 74.0046 23.4957V18.7417H72.7162V17.013H74.0046V14.8439H76.3612Z" fill="white"/>
</svg>
