<svg width="268" height="55" viewBox="0 0 268 55" fill="none" xmlns="http://www.w3.org/2000/svg">
<path d="M0 16.46C0 14.6133 0 13.6899 0.563747 13.1082C0.578323 13.0931 0.593134 13.0783 0.608174 13.0637C1.18992 12.5 2.11328 12.5 3.96 12.5H251.102C251.787 12.5 252.13 12.5 252.447 12.3904C252.455 12.3875 252.464 12.3845 252.473 12.3814C252.788 12.2675 253.055 12.0525 253.588 11.6225L261.554 5.19831C264.319 2.96858 265.701 1.85372 266.822 2.35898C266.849 2.37131 266.876 2.38425 266.903 2.3978C268 2.95295 268 4.7289 268 8.28082V12.5V51.04C268 52.8867 268 53.8101 267.436 54.3918C267.422 54.4069 267.407 54.4217 267.392 54.4363C266.81 55 265.887 55 264.04 55H3.96C2.11328 55 1.18992 55 0.608174 54.4363C0.593134 54.4217 0.578323 54.4069 0.563747 54.3918C0 53.8101 0 52.8867 0 51.04V16.46Z" fill="#4DDBFF"/>
<path d="M23.9527 36.2529C23.8368 37.4809 23.3836 38.44 22.593 39.1304C21.8025 39.8155 20.7511 40.1581 19.4388 40.1581C18.5218 40.1581 17.7128 39.942 17.0119 39.5099C16.3162 39.0724 15.7787 38.4532 15.3992 37.6521C15.0198 36.8511 14.8221 35.9209 14.8063 34.8616V33.7865C14.8063 32.7008 14.9987 31.7443 15.3834 30.9168C15.7681 30.0894 16.3189 29.4517 17.0356 29.0038C17.7576 28.5558 18.5903 28.3318 19.5337 28.3318C20.8038 28.3318 21.8262 28.677 22.6009 29.3674C23.3757 30.0578 23.8263 31.0328 23.9527 32.2924H21.9606C21.8657 31.4649 21.6233 30.8694 21.2333 30.5058C20.8486 30.1369 20.2821 29.9524 19.5337 29.9524C18.6641 29.9524 17.9948 30.2712 17.5258 30.9089C17.062 31.5414 16.8248 32.4715 16.8143 33.6995V34.7193C16.8143 35.963 17.0356 36.9117 17.4783 37.5652C17.9263 38.2187 18.5798 38.5454 19.4388 38.5454C20.2241 38.5454 20.8143 38.3689 21.2096 38.0158C21.6049 37.6627 21.8552 37.075 21.9606 36.2529H23.9527ZM25.2018 35.6442C25.2018 34.8062 25.3678 34.0526 25.6998 33.3833C26.0318 32.7087 26.4982 32.1922 27.099 31.8339C27.6998 31.4702 28.3902 31.2884 29.1702 31.2884C30.3244 31.2884 31.2598 31.6599 31.9766 32.403C32.6986 33.1461 33.0886 34.1317 33.1466 35.3596L33.1545 35.8102C33.1545 36.6534 32.9911 37.4071 32.6644 38.0711C32.3429 38.7352 31.8791 39.249 31.273 39.6126C30.6722 39.9763 29.9766 40.1581 29.186 40.1581C27.9792 40.1581 27.0121 39.7576 26.2848 38.9565C25.5628 38.1502 25.2018 37.0777 25.2018 35.7391V35.6442ZM27.1228 35.8102C27.1228 36.6903 27.3046 37.3807 27.6682 37.8814C28.0319 38.3768 28.5378 38.6245 29.186 38.6245C29.8343 38.6245 30.3376 38.3715 30.6959 37.8656C31.0596 37.3596 31.2414 36.6192 31.2414 35.6442C31.2414 34.7799 31.0543 34.0948 30.6801 33.5888C30.3112 33.0829 29.8079 32.8299 29.1702 32.8299C28.5431 32.8299 28.045 33.0803 27.6761 33.5809C27.3072 34.0763 27.1228 34.8194 27.1228 35.8102ZM36.5617 31.4465L36.617 32.4347C37.2494 31.6705 38.0795 31.2884 39.1071 31.2884C40.8885 31.2884 41.7949 32.3082 41.8266 34.3477V40H39.9056V34.4584C39.9056 33.9156 39.787 33.515 39.5498 33.2568C39.318 32.9933 38.9359 32.8615 38.4036 32.8615C37.6289 32.8615 37.0518 33.212 36.6723 33.9129V40H34.7513V31.4465H36.5617ZM46.1982 29.3674V31.4465H47.7081V32.8694H46.1982V37.6442C46.1982 37.971 46.2614 38.2081 46.3879 38.3557C46.5197 38.498 46.7515 38.5691 47.0836 38.5691C47.3049 38.5691 47.5289 38.5428 47.7555 38.4901V39.9763C47.3181 40.0975 46.8965 40.1581 46.4907 40.1581C45.015 40.1581 44.2772 39.3439 44.2772 37.7154V32.8694H42.8701V31.4465H44.2772V29.3674H46.1982ZM54.2932 40C54.2089 39.8366 54.1351 39.5705 54.0718 39.2016C53.4605 39.8393 52.7121 40.1581 51.8267 40.1581C50.9677 40.1581 50.2668 39.913 49.7239 39.4229C49.1811 38.9328 48.9097 38.3267 48.9097 37.6047C48.9097 36.693 49.247 35.9947 49.9216 35.5098C50.6014 35.0197 51.5711 34.7746 52.8307 34.7746H54.0086V34.2133C54.0086 33.7706 53.8847 33.4175 53.637 33.154C53.3893 32.8853 53.0125 32.7509 52.5066 32.7509C52.0692 32.7509 51.7108 32.8615 51.4315 33.0829C51.1522 33.299 51.0125 33.5756 51.0125 33.9129H49.0915C49.0915 33.4439 49.247 33.0065 49.5579 32.6007C49.8689 32.1896 50.2905 31.8681 50.8228 31.6362C51.3603 31.4043 51.9585 31.2884 52.6173 31.2884C53.6186 31.2884 54.417 31.5414 55.0126 32.0473C55.6081 32.548 55.9138 33.2542 55.9296 34.1659V38.0237C55.9296 38.7931 56.0376 39.4071 56.2537 39.8656V40H54.2932ZM52.1825 38.6166C52.5619 38.6166 52.9177 38.5243 53.2497 38.3399C53.587 38.1554 53.8399 37.9077 54.0086 37.5968V35.9841H52.973C52.2615 35.9841 51.7266 36.108 51.3682 36.3557C51.0099 36.6034 50.8307 36.9538 50.8307 37.4071C50.8307 37.776 50.9519 38.0711 51.1943 38.2925C51.442 38.5085 51.7714 38.6166 52.1825 38.6166ZM61.4554 38.6245C61.9349 38.6245 62.3328 38.4848 62.6491 38.2055C62.9653 37.9262 63.1339 37.581 63.155 37.1699H64.9653C64.9442 37.7022 64.7782 38.2002 64.4673 38.664C64.1563 39.1225 63.7347 39.4862 63.2024 39.7549C62.6701 40.0237 62.0957 40.1581 61.4791 40.1581C60.2827 40.1581 59.3341 39.7707 58.6332 38.996C57.9322 38.2213 57.5818 37.1515 57.5818 35.7865V35.5889C57.5818 34.2871 57.9296 33.2463 58.6253 32.4663C59.3209 31.681 60.2696 31.2884 61.4712 31.2884C62.4883 31.2884 63.3157 31.5862 63.9534 32.1817C64.5964 32.7719 64.9337 33.5493 64.9653 34.5137H63.155C63.1339 34.0236 62.9653 33.6204 62.6491 33.3042C62.3381 32.988 61.9402 32.8299 61.4554 32.8299C60.8335 32.8299 60.3539 33.0565 60.0166 33.5098C59.6793 33.9577 59.508 34.6402 59.5028 35.5572V35.8655C59.5028 36.7931 59.6688 37.4861 60.0008 37.9446C60.3381 38.3979 60.8229 38.6245 61.4554 38.6245ZM68.8231 29.3674V31.4465H70.333V32.8694H68.8231V37.6442C68.8231 37.971 68.8863 38.2081 69.0128 38.3557C69.1446 38.498 69.3764 38.5691 69.7085 38.5691C69.9298 38.5691 70.1538 38.5428 70.3804 38.4901V39.9763C69.943 40.0975 69.5214 40.1581 69.1156 40.1581C67.6399 40.1581 66.9021 39.3439 66.9021 37.7154V32.8694H65.495V31.4465H66.9021V29.3674H68.8231ZM82.0407 37.0355C82.0407 36.5296 81.8615 36.1396 81.5031 35.8655C81.15 35.5915 80.5097 35.3148 79.5822 35.0355C78.6546 34.7562 77.9168 34.4452 77.3687 34.1027C76.3199 33.4439 75.7955 32.5849 75.7955 31.5255C75.7955 30.598 76.1723 29.8338 76.926 29.233C77.6849 28.6322 78.6678 28.3318 79.8746 28.3318C80.6757 28.3318 81.3898 28.4794 82.017 28.7745C82.6441 29.0696 83.1369 29.4913 83.4953 30.0394C83.8536 30.5822 84.0328 31.1856 84.0328 31.8497H82.0407C82.0407 31.2489 81.851 30.7798 81.4715 30.4425C81.0973 30.1 80.5598 29.9287 79.8588 29.9287C79.2053 29.9287 78.6968 30.0683 78.3331 30.3477C77.9747 30.627 77.7956 31.017 77.7956 31.5176C77.7956 31.9393 77.9906 32.2924 78.3805 32.5769C78.7705 32.8563 79.4135 33.1303 80.3094 33.3991C81.2054 33.6626 81.9247 33.9656 82.4676 34.3082C83.0104 34.6455 83.4083 35.0355 83.6613 35.4782C83.9142 35.9156 84.0407 36.4295 84.0407 37.0197C84.0407 37.9789 83.6718 38.7431 82.934 39.3122C82.2014 39.8762 81.2054 40.1581 79.9458 40.1581C79.1131 40.1581 78.3463 40.0053 77.6454 39.6996C76.9497 39.3887 76.4069 38.9618 76.0169 38.4189C75.6321 37.8761 75.4398 37.2437 75.4398 36.5217H77.4398C77.4398 37.1752 77.6559 37.6811 78.0881 38.0395C78.5202 38.3979 79.1395 38.5771 79.9458 38.5771C80.6415 38.5771 81.1632 38.4374 81.511 38.1581C81.8641 37.8735 82.0407 37.4993 82.0407 37.0355ZM90.7207 40C90.6364 39.8366 90.5626 39.5705 90.4993 39.2016C89.888 39.8393 89.1396 40.1581 88.2542 40.1581C87.3952 40.1581 86.6943 39.913 86.1514 39.4229C85.6086 38.9328 85.3372 38.3267 85.3372 37.6047C85.3372 36.693 85.6745 35.9947 86.3491 35.5098C87.0289 35.0197 87.9986 34.7746 89.2582 34.7746H90.4361V34.2133C90.4361 33.7706 90.3122 33.4175 90.0645 33.154C89.8168 32.8853 89.44 32.7509 88.9341 32.7509C88.4967 32.7509 88.1383 32.8615 87.859 33.0829C87.5797 33.299 87.44 33.5756 87.44 33.9129H85.519C85.519 33.4439 85.6745 33.0065 85.9854 32.6007C86.2964 32.1896 86.718 31.8681 87.2503 31.6362C87.7878 31.4043 88.386 31.2884 89.0448 31.2884C90.0461 31.2884 90.8445 31.5414 91.4401 32.0473C92.0356 32.548 92.3413 33.2542 92.3571 34.1659V38.0237C92.3571 38.7931 92.4651 39.4071 92.6812 39.8656V40H90.7207ZM88.61 38.6166C88.9894 38.6166 89.3452 38.5243 89.6772 38.3399C90.0145 38.1554 90.2674 37.9077 90.4361 37.5968V35.9841H89.4005C88.689 35.9841 88.1541 36.108 87.7957 36.3557C87.4374 36.6034 87.2582 36.9538 87.2582 37.4071C87.2582 37.776 87.3794 38.0711 87.6218 38.2925C87.8695 38.5085 88.1989 38.6166 88.61 38.6166ZM99.4797 40C99.3954 39.8366 99.3216 39.5705 99.2584 39.2016C98.647 39.8393 97.8987 40.1581 97.0133 40.1581C96.1542 40.1581 95.4533 39.913 94.9105 39.4229C94.3676 38.9328 94.0962 38.3267 94.0962 37.6047C94.0962 36.693 94.4335 35.9947 95.1081 35.5098C95.788 35.0197 96.7577 34.7746 98.0172 34.7746H99.1951V34.2133C99.1951 33.7706 99.0713 33.4175 98.8236 33.154C98.5759 32.8853 98.1991 32.7509 97.6931 32.7509C97.2557 32.7509 96.8973 32.8615 96.618 33.0829C96.3387 33.299 96.199 33.5756 96.199 33.9129H94.2781C94.2781 33.4439 94.4335 33.0065 94.7445 32.6007C95.0554 32.1896 95.477 31.8681 96.0093 31.6362C96.5469 31.4043 97.145 31.2884 97.8038 31.2884C98.8051 31.2884 99.6036 31.5414 100.199 32.0473C100.795 32.548 101.1 33.2542 101.116 34.1659V38.0237C101.116 38.7931 101.224 39.4071 101.44 39.8656V40H99.4797ZM97.369 38.6166C97.7485 38.6166 98.1042 38.5243 98.4362 38.3399C98.7735 38.1554 99.0265 37.9077 99.1951 37.5968V35.9841H98.1595C97.4481 35.9841 96.9131 36.108 96.5548 36.3557C96.1964 36.6034 96.0172 36.9538 96.0172 37.4071C96.0172 37.776 96.1384 38.0711 96.3809 38.2925C96.6286 38.5085 96.9579 38.6166 97.369 38.6166ZM105.021 32.3793C105.648 31.652 106.442 31.2884 107.401 31.2884C109.224 31.2884 110.149 32.3292 110.176 34.411V40H108.255V34.4821C108.255 33.8919 108.125 33.4755 107.867 33.2331C107.614 32.9854 107.24 32.8615 106.745 32.8615C105.975 32.8615 105.401 33.2041 105.021 33.8892V40H103.1V27.8575H105.021V32.3793ZM114.168 40H112.247V31.4465H114.168V40ZM112.128 29.2251C112.128 28.93 112.22 28.6849 112.405 28.4899C112.595 28.2949 112.863 28.1974 113.211 28.1974C113.559 28.1974 113.828 28.2949 114.018 28.4899C114.207 28.6849 114.302 28.93 114.302 29.2251C114.302 29.515 114.207 29.7574 114.018 29.9524C113.828 30.1421 113.559 30.237 113.211 30.237C112.863 30.237 112.595 30.1421 112.405 29.9524C112.22 29.7574 112.128 29.515 112.128 29.2251ZM118.31 40H116.389V27.8575H118.31V40ZM121.567 37.9762C121.925 37.9762 122.202 38.079 122.397 38.2846C122.592 38.4848 122.69 38.7378 122.69 39.0435C122.69 39.3439 122.592 39.5942 122.397 39.7945C122.202 39.9895 121.925 40.087 121.567 40.087C121.224 40.087 120.953 39.9895 120.753 39.7945C120.553 39.5995 120.452 39.3491 120.452 39.0435C120.452 38.7378 120.55 38.4848 120.745 38.2846C120.94 38.079 121.214 37.9762 121.567 37.9762ZM121.567 31.2647C121.925 31.2647 122.202 31.3674 122.397 31.573C122.592 31.7732 122.69 32.0262 122.69 32.3319C122.69 32.6323 122.592 32.8826 122.397 33.0829C122.202 33.2779 121.925 33.3754 121.567 33.3754C121.224 33.3754 120.953 33.2779 120.753 33.0829C120.553 32.8879 120.452 32.6376 120.452 32.3319C120.452 32.0262 120.55 31.7732 120.745 31.573C120.94 31.3674 121.214 31.2647 121.567 31.2647ZM133.18 33.6679H136.184V35.4228H133.18V38.8458H131.314V35.4228H128.294V33.6679H131.314V30.4662H133.18V33.6679ZM143.093 35.1857C142.45 35.8655 141.699 36.2055 140.84 36.2055C139.828 36.2055 139.022 35.8524 138.421 35.1462C137.82 34.4347 137.52 33.5019 137.52 32.3477C137.52 31.5888 137.673 30.901 137.978 30.2844C138.284 29.6678 138.719 29.1882 139.283 28.8457C139.847 28.5031 140.5 28.3318 141.243 28.3318C142.403 28.3318 143.322 28.764 144.002 29.6283C144.682 30.4926 145.022 31.6494 145.022 33.0987V33.6363C145.022 35.7127 144.553 37.2964 143.615 38.3873C142.677 39.4783 141.278 40.0316 139.417 40.0474H139.188V38.4585H139.465C140.598 38.4427 141.467 38.1712 142.073 37.6442C142.679 37.1119 143.019 36.2924 143.093 35.1857ZM141.243 34.7035C141.628 34.7035 141.989 34.5928 142.326 34.3714C142.664 34.1501 142.924 33.8444 143.109 33.4544V32.7034C143.109 31.8549 142.935 31.1724 142.587 30.656C142.239 30.1395 141.789 29.8812 141.235 29.8812C140.682 29.8812 140.239 30.1105 139.907 30.569C139.581 31.0222 139.417 31.5967 139.417 32.2924C139.417 33.0144 139.583 33.5967 139.915 34.0394C140.247 34.4821 140.69 34.7035 141.243 34.7035ZM152.05 40H150.137V30.7587L147.315 31.7232V30.1026L151.805 28.4504H152.05V40ZM165.528 35.1857C164.885 35.8655 164.134 36.2055 163.275 36.2055C162.263 36.2055 161.457 35.8524 160.856 35.1462C160.255 34.4347 159.955 33.5019 159.955 32.3477C159.955 31.5888 160.108 30.901 160.414 30.2844C160.719 29.6678 161.154 29.1882 161.718 28.8457C162.282 28.5031 162.935 28.3318 163.678 28.3318C164.838 28.3318 165.758 28.764 166.437 29.6283C167.117 30.4926 167.457 31.6494 167.457 33.0987V33.6363C167.457 35.7127 166.988 37.2964 166.05 38.3873C165.112 39.4783 163.713 40.0316 161.852 40.0474H161.623V38.4585H161.9C163.033 38.4427 163.902 38.1712 164.509 37.6442C165.115 37.1119 165.455 36.2924 165.528 35.1857ZM163.678 34.7035C164.063 34.7035 164.424 34.5928 164.761 34.3714C165.099 34.1501 165.36 33.8444 165.544 33.4544V32.7034C165.544 31.8549 165.37 31.1724 165.022 30.656C164.675 30.1395 164.224 29.8812 163.671 29.8812C163.117 29.8812 162.674 30.1105 162.342 30.569C162.016 31.0222 161.852 31.5967 161.852 32.2924C161.852 33.0144 162.018 33.5967 162.35 34.0394C162.682 34.4821 163.125 34.7035 163.678 34.7035ZM176.532 31.5255C176.532 32.0895 176.387 32.5928 176.098 33.0355C175.808 33.4729 175.413 33.8181 174.912 34.071C175.513 34.3504 175.974 34.7325 176.295 35.2173C176.622 35.7022 176.785 36.2503 176.785 36.8616C176.785 37.8735 176.443 38.6772 175.758 39.2727C175.073 39.863 174.161 40.1581 173.022 40.1581C171.879 40.1581 170.962 39.8603 170.271 39.2648C169.586 38.6693 169.244 37.8682 169.244 36.8616C169.244 36.245 169.407 35.6916 169.734 35.2015C170.061 34.7114 170.519 34.3346 171.109 34.071C170.614 33.8181 170.221 33.4729 169.932 33.0355C169.647 32.5928 169.505 32.0895 169.505 31.5255C169.505 30.5453 169.821 29.7679 170.453 29.1935C171.086 28.619 171.939 28.3318 173.015 28.3318C174.095 28.3318 174.951 28.619 175.584 29.1935C176.216 29.7679 176.532 30.5453 176.532 31.5255ZM174.864 36.7667C174.864 36.1976 174.693 35.7391 174.351 35.3912C174.013 35.0381 173.565 34.8616 173.007 34.8616C172.448 34.8616 172 35.0355 171.663 35.3833C171.331 35.7312 171.165 36.1923 171.165 36.7667C171.165 37.3307 171.328 37.7813 171.655 38.1185C171.987 38.4558 172.443 38.6245 173.022 38.6245C173.602 38.6245 174.053 38.4611 174.374 38.1344C174.701 37.8076 174.864 37.3517 174.864 36.7667ZM174.619 31.5967C174.619 31.096 174.474 30.685 174.185 30.3635C173.895 30.0367 173.505 29.8733 173.015 29.8733C172.524 29.8733 172.137 30.0288 171.853 30.3398C171.568 30.6454 171.426 31.0644 171.426 31.5967C171.426 32.1237 171.568 32.5427 171.853 32.8536C172.142 33.1646 172.532 33.32 173.022 33.32C173.513 33.32 173.9 33.1646 174.185 32.8536C174.474 32.5427 174.619 32.1237 174.619 31.5967ZM183.932 35.1857C183.289 35.8655 182.538 36.2055 181.679 36.2055C180.667 36.2055 179.861 35.8524 179.26 35.1462C178.659 34.4347 178.359 33.5019 178.359 32.3477C178.359 31.5888 178.511 30.901 178.817 30.2844C179.123 29.6678 179.558 29.1882 180.121 28.8457C180.685 28.5031 181.339 28.3318 182.082 28.3318C183.241 28.3318 184.161 28.764 184.841 29.6283C185.521 30.4926 185.861 31.6494 185.861 33.0987V33.6363C185.861 35.7127 185.392 37.2964 184.454 38.3873C183.515 39.4783 182.116 40.0316 180.256 40.0474H180.027V38.4585H180.303C181.436 38.4427 182.306 38.1712 182.912 37.6442C183.518 37.1119 183.858 36.2924 183.932 35.1857ZM182.082 34.7035C182.467 34.7035 182.828 34.5928 183.165 34.3714C183.502 34.1501 183.763 33.8444 183.948 33.4544V32.7034C183.948 31.8549 183.774 31.1724 183.426 30.656C183.078 30.1395 182.627 29.8812 182.074 29.8812C181.521 29.8812 181.078 30.1105 180.746 30.569C180.419 31.0222 180.256 31.5967 180.256 32.2924C180.256 33.0144 180.422 33.5967 180.754 34.0394C181.086 34.4821 181.529 34.7035 182.082 34.7035ZM194.936 31.5255C194.936 32.0895 194.791 32.5928 194.501 33.0355C194.211 33.4729 193.816 33.8181 193.315 34.071C193.916 34.3504 194.377 34.7325 194.699 35.2173C195.025 35.7022 195.189 36.2503 195.189 36.8616C195.189 37.8735 194.846 38.6772 194.161 39.2727C193.476 39.863 192.564 40.1581 191.426 40.1581C190.282 40.1581 189.365 39.8603 188.675 39.2648C187.99 38.6693 187.647 37.8682 187.647 36.8616C187.647 36.245 187.811 35.6916 188.137 35.2015C188.464 34.7114 188.923 34.3346 189.513 34.071C189.017 33.8181 188.625 33.4729 188.335 33.0355C188.05 32.5928 187.908 32.0895 187.908 31.5255C187.908 30.5453 188.224 29.7679 188.857 29.1935C189.489 28.619 190.343 28.3318 191.418 28.3318C192.498 28.3318 193.355 28.619 193.987 29.1935C194.62 29.7679 194.936 30.5453 194.936 31.5255ZM193.268 36.7667C193.268 36.1976 193.097 35.7391 192.754 35.3912C192.417 35.0381 191.969 34.8616 191.41 34.8616C190.852 34.8616 190.404 35.0355 190.066 35.3833C189.734 35.7312 189.568 36.1923 189.568 36.7667C189.568 37.3307 189.732 37.7813 190.058 38.1185C190.39 38.4558 190.846 38.6245 191.426 38.6245C192.006 38.6245 192.456 38.4611 192.778 38.1344C193.105 37.8076 193.268 37.3517 193.268 36.7667ZM193.023 31.5967C193.023 31.096 192.878 30.685 192.588 30.3635C192.298 30.0367 191.908 29.8733 191.418 29.8733C190.928 29.8733 190.541 30.0288 190.256 30.3398C189.971 30.6454 189.829 31.0644 189.829 31.5967C189.829 32.1237 189.971 32.5427 190.256 32.8536C190.546 33.1646 190.936 33.32 191.426 33.32C191.916 33.32 192.303 33.1646 192.588 32.8536C192.878 32.5427 193.023 32.1237 193.023 31.5967ZM204.391 35.1541C204.391 36.8089 204.08 38.0579 203.458 38.9012C202.841 39.7391 201.9 40.1581 200.636 40.1581C199.392 40.1581 198.454 39.7497 197.821 38.9328C197.194 38.1106 196.873 36.8959 196.857 35.2885V33.2963C196.857 31.6415 197.165 30.4004 197.782 29.5729C198.404 28.7455 199.35 28.3318 200.62 28.3318C201.879 28.3318 202.817 28.735 203.434 29.5413C204.056 30.3477 204.375 31.5545 204.391 33.1619V35.1541ZM202.47 33.0038C202.47 31.9234 202.322 31.1329 202.027 30.6323C201.732 30.1263 201.263 29.8733 200.62 29.8733C199.993 29.8733 199.531 30.1131 199.236 30.5927C198.941 31.067 198.786 31.8101 198.77 32.822V35.4308C198.77 36.5059 198.92 37.3069 199.221 37.834C199.521 38.361 199.993 38.6245 200.636 38.6245C201.252 38.6245 201.708 38.3821 202.003 37.8972C202.298 37.4071 202.454 36.6429 202.47 35.6047V33.0038ZM206.604 34.2924L207.229 28.4899H213.411V30.15H208.825L208.509 32.9011C209.042 32.5954 209.642 32.4426 210.312 32.4426C211.408 32.4426 212.259 32.793 212.865 33.494C213.476 34.1949 213.782 35.1383 213.782 36.324C213.782 37.494 213.445 38.4269 212.77 39.1225C212.096 39.8129 211.171 40.1581 209.995 40.1581C208.941 40.1581 208.067 39.8603 207.371 39.2648C206.681 38.664 206.306 37.8735 206.248 36.8932H208.106C208.18 37.4519 208.38 37.8814 208.707 38.1818C209.034 38.4769 209.461 38.6245 209.988 38.6245C210.578 38.6245 211.036 38.4137 211.363 37.9921C211.695 37.5704 211.861 36.996 211.861 36.2687C211.861 35.5678 211.679 35.0144 211.316 34.6086C210.952 34.1975 210.451 33.992 209.814 33.992C209.466 33.992 209.171 34.0394 208.928 34.1343C208.686 34.2239 208.422 34.4031 208.138 34.6718L206.604 34.2924ZM221.268 28.4346V30.0235H221.031C219.956 30.0394 219.097 30.3345 218.454 30.9089C217.811 31.4834 217.429 32.2976 217.308 33.3517C217.924 32.7034 218.712 32.3793 219.672 32.3793C220.689 32.3793 221.49 32.7377 222.075 33.4544C222.665 34.1712 222.96 35.0961 222.96 36.2292C222.96 37.3992 222.615 38.3478 221.925 39.0751C221.239 39.7971 220.338 40.1581 219.221 40.1581C218.072 40.1581 217.139 39.7339 216.422 38.8854C215.711 38.0369 215.355 36.9248 215.355 35.5493V34.8932C215.355 32.8747 215.845 31.2937 216.826 30.15C217.811 29.0064 219.226 28.4346 221.071 28.4346H221.268ZM219.205 33.9287C218.783 33.9287 218.396 34.0473 218.043 34.2845C217.695 34.5216 217.44 34.8379 217.276 35.2331V35.8181C217.276 36.6719 217.455 37.3517 217.814 37.8577C218.172 38.3583 218.636 38.6087 219.205 38.6087C219.774 38.6087 220.225 38.3952 220.557 37.9683C220.889 37.5415 221.055 36.9802 221.055 36.2845C221.055 35.5889 220.886 35.0223 220.549 34.5849C220.212 34.1475 219.764 33.9287 219.205 33.9287ZM226.715 33.3675H227.885C228.475 33.3622 228.942 33.2094 229.284 32.909C229.632 32.6086 229.806 32.1738 229.806 31.6046C229.806 31.0565 229.661 30.6323 229.371 30.3319C229.087 30.0262 228.649 29.8733 228.059 29.8733C227.543 29.8733 227.118 30.0235 226.786 30.3239C226.454 30.6191 226.288 31.0064 226.288 31.486H224.367C224.367 30.8958 224.523 30.3582 224.834 29.8733C225.15 29.3885 225.587 29.0117 226.146 28.7429C226.71 28.4688 227.34 28.3318 228.035 28.3318C229.184 28.3318 230.085 28.6217 230.739 29.2014C231.398 29.7758 231.727 30.5769 231.727 31.6046C231.727 32.1211 231.561 32.6086 231.229 33.0671C230.902 33.5203 230.478 33.8629 229.956 34.0948C230.589 34.3108 231.068 34.6508 231.395 35.1145C231.727 35.5783 231.893 36.1317 231.893 36.7746C231.893 37.8076 231.537 38.6298 230.826 39.2411C230.12 39.8524 229.189 40.1581 228.035 40.1581C226.929 40.1581 226.022 39.863 225.316 39.2727C224.61 38.6825 224.257 37.8972 224.257 36.9169H226.178C226.178 37.4229 226.346 37.834 226.683 38.1502C227.026 38.4664 227.485 38.6245 228.059 38.6245C228.655 38.6245 229.124 38.4664 229.466 38.1502C229.809 37.834 229.98 37.3754 229.98 36.7746C229.98 36.1686 229.801 35.7022 229.442 35.3754C229.084 35.0487 228.552 34.8853 227.846 34.8853H226.715V33.3675ZM240.945 31.5255C240.945 32.0895 240.8 32.5928 240.51 33.0355C240.22 33.4729 239.825 33.8181 239.324 34.071C239.925 34.3504 240.386 34.7325 240.707 35.2173C241.034 35.7022 241.198 36.2503 241.198 36.8616C241.198 37.8735 240.855 38.6772 240.17 39.2727C239.485 39.863 238.573 40.1581 237.435 40.1581C236.291 40.1581 235.374 39.8603 234.684 39.2648C233.998 38.6693 233.656 37.8682 233.656 36.8616C233.656 36.245 233.819 35.6916 234.146 35.2015C234.473 34.7114 234.931 34.3346 235.522 34.071C235.026 33.8181 234.634 33.4729 234.344 33.0355C234.059 32.5928 233.917 32.0895 233.917 31.5255C233.917 30.5453 234.233 29.7679 234.865 29.1935C235.498 28.619 236.352 28.3318 237.427 28.3318C238.507 28.3318 239.364 28.619 239.996 29.1935C240.628 29.7679 240.945 30.5453 240.945 31.5255ZM239.277 36.7667C239.277 36.1976 239.105 35.7391 238.763 35.3912C238.425 35.0381 237.977 34.8616 237.419 34.8616C236.86 34.8616 236.412 35.0355 236.075 35.3833C235.743 35.7312 235.577 36.1923 235.577 36.7667C235.577 37.3307 235.74 37.7813 236.067 38.1185C236.399 38.4558 236.855 38.6245 237.435 38.6245C238.014 38.6245 238.465 38.4611 238.786 38.1344C239.113 37.8076 239.277 37.3517 239.277 36.7667ZM239.032 31.5967C239.032 31.096 238.887 30.685 238.597 30.3635C238.307 30.0367 237.917 29.8733 237.427 29.8733C236.937 29.8733 236.549 30.0288 236.265 30.3398C235.98 30.6454 235.838 31.0644 235.838 31.5967C235.838 32.1237 235.98 32.5427 236.265 32.8536C236.555 33.1646 236.945 33.32 237.435 33.32C237.925 33.32 238.312 33.1646 238.597 32.8536C238.887 32.5427 239.032 32.1237 239.032 31.5967ZM250.146 31.5255C250.146 32.0895 250.001 32.5928 249.712 33.0355C249.422 33.4729 249.026 33.8181 248.526 34.071C249.127 34.3504 249.588 34.7325 249.909 35.2173C250.236 35.7022 250.399 36.2503 250.399 36.8616C250.399 37.8735 250.057 38.6772 249.372 39.2727C248.686 39.863 247.775 40.1581 246.636 40.1581C245.493 40.1581 244.576 39.8603 243.885 39.2648C243.2 38.6693 242.858 37.8682 242.858 36.8616C242.858 36.245 243.021 35.6916 243.348 35.2015C243.675 34.7114 244.133 34.3346 244.723 34.071C244.228 33.8181 243.835 33.4729 243.545 33.0355C243.261 32.5928 243.119 32.0895 243.119 31.5255C243.119 30.5453 243.435 29.7679 244.067 29.1935C244.7 28.619 245.553 28.3318 246.628 28.3318C247.709 28.3318 248.565 28.619 249.198 29.1935C249.83 29.7679 250.146 30.5453 250.146 31.5255ZM248.478 36.7667C248.478 36.1976 248.307 35.7391 247.964 35.3912C247.627 35.0381 247.179 34.8616 246.621 34.8616C246.062 34.8616 245.614 35.0355 245.277 35.3833C244.945 35.7312 244.779 36.1923 244.779 36.7667C244.779 37.3307 244.942 37.7813 245.269 38.1185C245.601 38.4558 246.057 38.6245 246.636 38.6245C247.216 38.6245 247.667 38.4611 247.988 38.1344C248.315 37.8076 248.478 37.3517 248.478 36.7667ZM248.233 31.5967C248.233 31.096 248.088 30.685 247.798 30.3635C247.509 30.0367 247.119 29.8733 246.628 29.8733C246.138 29.8733 245.751 30.0288 245.466 30.3398C245.182 30.6454 245.04 31.0644 245.04 31.5967C245.04 32.1237 245.182 32.5427 245.466 32.8536C245.756 33.1646 246.146 33.32 246.636 33.32C247.127 33.32 247.514 33.1646 247.798 32.8536C248.088 32.5427 248.233 32.1237 248.233 31.5967Z" fill="black"/>
</svg>
